<?xml version="1.0" encoding="UTF-8" standalone="no"?>
<!DOCTYPE svg PUBLIC "-//W3C//DTD SVG 1.1//EN"
 "http://www.w3.org/Graphics/SVG/1.1/DTD/svg11.dtd">
<!-- Generated by graphviz version 2.40.1 (20161225.0304)
 -->
<!-- Title: %0 Pages: 1 -->
<svg width="961pt" height="986pt"
 viewBox="0.00 0.00 961.04 986.00" xmlns="http://www.w3.org/2000/svg" xmlns:xlink="http://www.w3.org/1999/xlink">
<g id="graph0" class="graph" transform="scale(1 1) rotate(0) translate(144 842)">
<title>%0</title>
<polygon fill="#ffffff" stroke="transparent" points="-144,144 -144,-842 817.0366,-842 817.0366,144 -144,144"/>
<!-- orders -->
<g id="node1" class="node">
<title>orders</title>
<polygon fill="#4477c9" stroke="transparent" points="559.0366,-220 559.0366,-478 673.0366,-478 673.0366,-220 559.0366,-220"/>
<polygon fill="#add8e6" stroke="transparent" points="559.0366,-460 559.0366,-478 673.0366,-478 673.0366,-460 559.0366,-460"/>
<polygon fill="none" stroke="#000000" points="559.0366,-460 559.0366,-478 673.0366,-478 673.0366,-460 559.0366,-460"/>
<text text-anchor="start" x="602.5429" y="-466.9" font-family="Times,serif" font-weight="bold" font-style="italic" font-size="9.00" fill="#000000"> orders </text>
<polygon fill="none" stroke="#000000" points="559.0366,-440 559.0366,-460 673.0366,-460 673.0366,-440 559.0366,-440"/>
<text text-anchor="start" x="564.0366" y="-446.9" font-family="Times,serif" font-size="9.00" fill="#000000">buyer._id: ObjectId</text>
<polygon fill="none" stroke="#000000" points="559.0366,-420 559.0366,-440 673.0366,-440 673.0366,-420 559.0366,-420"/>
<text text-anchor="start" x="564.0366" y="-426.9" font-family="Times,serif" font-size="9.00" fill="#000000">buyer.username: String</text>
<polygon fill="none" stroke="#000000" points="559.0366,-400 559.0366,-420 673.0366,-420 673.0366,-400 559.0366,-400"/>
<text text-anchor="start" x="564.0366" y="-406.9" font-family="Times,serif" font-size="9.00" fill="#000000">buyer.email: String</text>
<polygon fill="none" stroke="#000000" points="559.0366,-380 559.0366,-400 673.0366,-400 673.0366,-380 559.0366,-380"/>
<text text-anchor="start" x="564.0366" y="-386.9" font-family="Times,serif" font-size="9.00" fill="#000000">buyer.address: String</text>
<polygon fill="none" stroke="#000000" points="559.0366,-360 559.0366,-380 673.0366,-380 673.0366,-360 559.0366,-360"/>
<text text-anchor="start" x="563.5513" y="-366.9" font-family="Times,serif" font-size="9.00" fill="#000000">buyer.contactNumber: String</text>
<polygon fill="none" stroke="#000000" points="559.0366,-340 559.0366,-360 673.0366,-360 673.0366,-340 559.0366,-340"/>
<text text-anchor="start" x="564.0366" y="-346.9" font-family="Times,serif" font-size="9.00" fill="#000000">items: Array</text>
<polygon fill="none" stroke="#000000" points="559.0366,-320 559.0366,-340 673.0366,-340 673.0366,-320 559.0366,-320"/>
<text text-anchor="start" x="564.0366" y="-326.9" font-family="Times,serif" font-size="9.00" fill="#000000">totalAmount: Number</text>
<polygon fill="none" stroke="#000000" points="559.0366,-300 559.0366,-320 673.0366,-320 673.0366,-300 559.0366,-300"/>
<text text-anchor="start" x="564.0366" y="-306.9" font-family="Times,serif" font-size="9.00" fill="#000000">paymentMethod: String</text>
<polygon fill="none" stroke="#000000" points="559.0366,-280 559.0366,-300 673.0366,-300 673.0366,-280 559.0366,-280"/>
<text text-anchor="start" x="564.0366" y="-286.9" font-family="Times,serif" font-size="9.00" fill="#000000">status: String</text>
<polygon fill="none" stroke="#000000" points="559.0366,-260 559.0366,-280 673.0366,-280 673.0366,-260 559.0366,-260"/>
<text text-anchor="start" x="564.0366" y="-266.9" font-family="Times,serif" font-size="9.00" fill="#000000">createdAt: Date</text>
<polygon fill="none" stroke="#000000" points="559.0366,-240 559.0366,-260 673.0366,-260 673.0366,-240 559.0366,-240"/>
<text text-anchor="start" x="564.0366" y="-246.9" font-family="Times,serif" font-size="9.00" fill="#000000">_id: ObjectId</text>
<polygon fill="none" stroke="#000000" points="559.0366,-220 559.0366,-240 673.0366,-240 673.0366,-220 559.0366,-220"/>
<text text-anchor="start" x="564.0366" y="-226.9" font-family="Times,serif" font-size="9.00" fill="#000000">__v: Number</text>
</g>
<!-- products -->
<g id="node2" class="node">
<title>products</title>
<polygon fill="#4477c9" stroke="transparent" points="264.6312,-50 264.6312,-348 383.6312,-348 383.6312,-50 264.6312,-50"/>
<polygon fill="#add8e6" stroke="transparent" points="265.1312,-330 265.1312,-348 384.1312,-348 384.1312,-330 265.1312,-330"/>
<polygon fill="none" stroke="#000000" points="265.1312,-330 265.1312,-348 384.1312,-348 384.1312,-330 265.1312,-330"/>
<text text-anchor="start" x="306.885" y="-336.9" font-family="Times,serif" font-weight="bold" font-style="italic" font-size="9.00" fill="#000000"> products </text>
<polygon fill="none" stroke="#000000" points="265.1312,-310 265.1312,-330 384.1312,-330 384.1312,-310 265.1312,-310"/>
<text text-anchor="start" x="270.1312" y="-316.9" font-family="Times,serif" font-size="9.00" fill="#000000">name: String</text>
<polygon fill="none" stroke="#000000" points="265.1312,-290 265.1312,-310 384.1312,-310 384.1312,-290 265.1312,-290"/>
<text text-anchor="start" x="270.1312" y="-296.9" font-family="Times,serif" font-size="9.00" fill="#000000">price: Number</text>
<polygon fill="none" stroke="#000000" points="265.1312,-270 265.1312,-290 384.1312,-290 384.1312,-270 265.1312,-270"/>
<text text-anchor="start" x="270.1312" y="-276.9" font-family="Times,serif" font-size="9.00" fill="#000000">description: String</text>
<polygon fill="none" stroke="#000000" points="265.1312,-250 265.1312,-270 384.1312,-270 384.1312,-250 265.1312,-250"/>
<text text-anchor="start" x="270.1312" y="-256.9" font-family="Times,serif" font-size="9.00" fill="#000000">images: Array</text>
<polygon fill="none" stroke="#000000" points="265.1312,-230 265.1312,-250 384.1312,-250 384.1312,-230 265.1312,-230"/>
<text text-anchor="start" x="270.1312" y="-236.9" font-family="Times,serif" font-size="9.00" fill="#000000">category: String</text>
<polygon fill="none" stroke="#000000" points="265.1312,-210 265.1312,-230 384.1312,-230 384.1312,-210 265.1312,-210"/>
<text text-anchor="start" x="270.1312" y="-216.9" font-family="Times,serif" font-size="9.00" fill="#000000">subcategory: String</text>
<polygon fill="none" stroke="#000000" points="265.1312,-190 265.1312,-210 384.1312,-210 384.1312,-190 265.1312,-190"/>
<text text-anchor="start" x="270.1312" y="-196.9" font-family="Times,serif" font-size="9.00" fill="#000000">quantity: Number</text>
<polygon fill="none" stroke="#000000" points="265.1312,-170 265.1312,-190 384.1312,-190 384.1312,-170 265.1312,-170"/>
<text text-anchor="start" x="270.1312" y="-176.9" font-family="Times,serif" font-size="9.00" fill="#000000">reviews: Array</text>
<polygon fill="none" stroke="#000000" points="265.1312,-150 265.1312,-170 384.1312,-170 384.1312,-150 265.1312,-150"/>
<text text-anchor="start" x="270.1312" y="-156.9" font-family="Times,serif" font-size="9.00" fill="#000000">seller: ObjectId</text>
<polygon fill="none" stroke="#000000" points="265.1312,-130 265.1312,-150 384.1312,-150 384.1312,-130 265.1312,-130"/>
<text text-anchor="start" x="270.1312" y="-136.9" font-family="Times,serif" font-size="9.00" fill="#000000">bargainRounds: Number</text>
<polygon fill="none" stroke="#000000" points="265.1312,-110 265.1312,-130 384.1312,-130 384.1312,-110 265.1312,-110"/>
<text text-anchor="start" x="270.0228" y="-116.9" font-family="Times,serif" font-size="9.00" fill="#000000">maxDiscountPercent: Number</text>
<polygon fill="none" stroke="#000000" points="265.1312,-90 265.1312,-110 384.1312,-110 384.1312,-90 265.1312,-90"/>
<text text-anchor="start" x="270.1312" y="-96.9" font-family="Times,serif" font-size="9.00" fill="#000000">createdAt: Date</text>
<polygon fill="none" stroke="#000000" points="265.1312,-70 265.1312,-90 384.1312,-90 384.1312,-70 265.1312,-70"/>
<text text-anchor="start" x="270.1312" y="-76.9" font-family="Times,serif" font-size="9.00" fill="#000000">_id: ObjectId</text>
<polygon fill="none" stroke="#000000" points="265.1312,-50 265.1312,-70 384.1312,-70 384.1312,-50 265.1312,-50"/>
<text text-anchor="start" x="270.1312" y="-56.9" font-family="Times,serif" font-size="9.00" fill="#000000">__v: Number</text>
</g>
<!-- vouchers -->
<g id="node5" class="node">
<title>vouchers</title>
<polygon fill="#4477c9" stroke="transparent" points="565.5366,0 565.5366,-138 666.5366,-138 666.5366,0 565.5366,0"/>
<polygon fill="#add8e6" stroke="transparent" points="566.0366,-120 566.0366,-138 667.0366,-138 667.0366,-120 566.0366,-120"/>
<polygon fill="none" stroke="#000000" points="566.0366,-120 566.0366,-138 667.0366,-138 667.0366,-120 566.0366,-120"/>
<text text-anchor="start" x="598.0434" y="-126.9" font-family="Times,serif" font-weight="bold" font-style="italic" font-size="9.00" fill="#000000"> vouchers </text>
<polygon fill="none" stroke="#000000" points="566.0366,-100 566.0366,-120 667.0366,-120 667.0366,-100 566.0366,-100"/>
<text text-anchor="start" x="571.0366" y="-106.9" font-family="Times,serif" font-size="9.00" fill="#000000">userId: ObjectId</text>
<polygon fill="none" stroke="#000000" points="566.0366,-80 566.0366,-100 667.0366,-100 667.0366,-80 566.0366,-80"/>
<text text-anchor="start" x="571.0366" y="-86.9" font-family="Times,serif" font-size="9.00" fill="#000000">productId: ObjectId</text>
<polygon fill="none" stroke="#000000" points="566.0366,-60 566.0366,-80 667.0366,-80 667.0366,-60 566.0366,-60"/>
<text text-anchor="start" x="570.6749" y="-66.9" font-family="Times,serif" font-size="9.00" fill="#000000">discountedPrice: Number</text>
<polygon fill="none" stroke="#000000" points="566.0366,-40 566.0366,-60 667.0366,-60 667.0366,-40 566.0366,-40"/>
<text text-anchor="start" x="571.0366" y="-46.9" font-family="Times,serif" font-size="9.00" fill="#000000">expiresAt: Date</text>
<polygon fill="none" stroke="#000000" points="566.0366,-20 566.0366,-40 667.0366,-40 667.0366,-20 566.0366,-20"/>
<text text-anchor="start" x="571.0366" y="-26.9" font-family="Times,serif" font-size="9.00" fill="#000000">_id: ObjectId</text>
<polygon fill="none" stroke="#000000" points="566.0366,0 566.0366,-20 667.0366,-20 667.0366,0 566.0366,0"/>
<text text-anchor="start" x="571.0366" y="-6.9" font-family="Times,serif" font-size="9.00" fill="#000000">__v: Number</text>
</g>
<!-- products&#45;&gt;vouchers -->
<g id="edge4" class="edge">
<title>products:12&#45;&gt;vouchers:1</title>
<path fill="none" stroke="#000000" stroke-dasharray="5,2" d="M383.6312,-80C464.822,-80 484.8458,-90 566.0366,-90"/>
<text text-anchor="middle" x="471.3339" y="-92.2" font-family="Times,serif" font-size="14.00" fill="#000000">products&#45;vouchers</text>
<text text-anchor="middle" x="560.9833" y="-77.4" font-family="Times,serif" font-size="14.00" fill="#000000">N</text>
<text text-anchor="middle" x="387.1312" y="-67.4" font-family="Times,serif" font-size="14.00" fill="#000000">1</text>
</g>
<!-- sellers -->
<g id="node3" class="node">
<title>sellers</title>
<polygon fill="#4477c9" stroke="transparent" points="0,-130 0,-428 104,-428 104,-130 0,-130"/>
<polygon fill="#add8e6" stroke="transparent" points="0,-410 0,-428 104,-428 104,-410 0,-410"/>
<polygon fill="none" stroke="#000000" points="0,-410 0,-428 104,-428 104,-410 0,-410"/>
<text text-anchor="start" x="38.2557" y="-416.9" font-family="Times,serif" font-weight="bold" font-style="italic" font-size="9.00" fill="#000000"> sellers </text>
<polygon fill="none" stroke="#000000" points="0,-390 0,-410 104,-410 104,-390 0,-390"/>
<text text-anchor="start" x="5" y="-396.9" font-family="Times,serif" font-size="9.00" fill="#000000">username: String</text>
<polygon fill="none" stroke="#000000" points="0,-370 0,-390 104,-390 104,-370 0,-370"/>
<text text-anchor="start" x="5" y="-376.9" font-family="Times,serif" font-size="9.00" fill="#000000">email: String</text>
<polygon fill="none" stroke="#000000" points="0,-350 0,-370 104,-370 104,-350 0,-350"/>
<text text-anchor="start" x="5" y="-356.9" font-family="Times,serif" font-size="9.00" fill="#000000">password: String</text>
<polygon fill="none" stroke="#000000" points="0,-330 0,-350 104,-350 104,-330 0,-330"/>
<text text-anchor="start" x="5" y="-336.9" font-family="Times,serif" font-size="9.00" fill="#000000">storeName: String</text>
<polygon fill="none" stroke="#000000" points="0,-310 0,-330 104,-330 104,-310 0,-310"/>
<text text-anchor="start" x="5" y="-316.9" font-family="Times,serif" font-size="9.00" fill="#000000">gender: String</text>
<polygon fill="none" stroke="#000000" points="0,-290 0,-310 104,-310 104,-290 0,-290"/>
<text text-anchor="start" x="5" y="-296.9" font-family="Times,serif" font-size="9.00" fill="#000000">contactNumber: String</text>
<polygon fill="none" stroke="#000000" points="0,-270 0,-290 104,-290 104,-270 0,-270"/>
<text text-anchor="start" x="5" y="-276.9" font-family="Times,serif" font-size="9.00" fill="#000000">dateOfBirth: Date</text>
<polygon fill="none" stroke="#000000" points="0,-250 0,-270 104,-270 104,-250 0,-250"/>
<text text-anchor="start" x="4.6402" y="-256.9" font-family="Times,serif" font-size="9.00" fill="#000000">warehouseAddress: String</text>
<polygon fill="none" stroke="#000000" points="0,-230 0,-250 104,-250 104,-230 0,-230"/>
<text text-anchor="start" x="5" y="-236.9" font-family="Times,serif" font-size="9.00" fill="#000000">storeImage: String</text>
<polygon fill="none" stroke="#000000" points="0,-210 0,-230 104,-230 104,-210 0,-210"/>
<text text-anchor="start" x="5" y="-216.9" font-family="Times,serif" font-size="9.00" fill="#000000">verificationCode: String</text>
<polygon fill="none" stroke="#000000" points="0,-190 0,-210 104,-210 104,-190 0,-190"/>
<text text-anchor="start" x="5" y="-196.9" font-family="Times,serif" font-size="9.00" fill="#000000">otpCreatedAt: Date</text>
<polygon fill="none" stroke="#000000" points="0,-170 0,-190 104,-190 104,-170 0,-170"/>
<text text-anchor="start" x="5" y="-176.9" font-family="Times,serif" font-size="9.00" fill="#000000">createdAt: Date</text>
<polygon fill="none" stroke="#000000" points="0,-150 0,-170 104,-170 104,-150 0,-150"/>
<text text-anchor="start" x="5" y="-156.9" font-family="Times,serif" font-size="9.00" fill="#000000">_id: ObjectId</text>
<polygon fill="none" stroke="#000000" points="0,-130 0,-150 104,-150 104,-130 0,-130"/>
<text text-anchor="start" x="5" y="-136.9" font-family="Times,serif" font-size="9.00" fill="#000000">__v: Number</text>
</g>
<!-- sellers&#45;&gt;products -->
<g id="edge2" class="edge">
<title>sellers:12&#45;&gt;products:8</title>
<path fill="none" stroke="#000000" stroke-dasharray="5,2" d="M104,-160C175.6139,-160 193.5173,-160 265.1312,-160"/>
<text text-anchor="middle" x="184.3156" y="-164.2" font-family="Times,serif" font-size="14.00" fill="#000000">sellers&#45;products</text>
<text text-anchor="middle" x="260.0779" y="-164.2" font-family="Times,serif" font-size="14.00" fill="#000000">N</text>
<text text-anchor="middle" x="107.5" y="-147.4" font-family="Times,serif" font-size="14.00" fill="#000000">1</text>
</g>
<!-- users -->
<g id="node4" class="node">
<title>users</title>
<polygon fill="#4477c9" stroke="transparent" points="275.6312,-420 275.6312,-698 372.6312,-698 372.6312,-420 275.6312,-420"/>
<polygon fill="#add8e6" stroke="transparent" points="276.1312,-680 276.1312,-698 373.1312,-698 373.1312,-680 276.1312,-680"/>
<polygon fill="none" stroke="#000000" points="276.1312,-680 276.1312,-698 373.1312,-698 373.1312,-680 276.1312,-680"/>
<text text-anchor="start" x="313.1355" y="-686.9" font-family="Times,serif" font-weight="bold" font-style="italic" font-size="9.00" fill="#000000"> users </text>
<polygon fill="none" stroke="#000000" points="276.1312,-660 276.1312,-680 373.1312,-680 373.1312,-660 276.1312,-660"/>
<text text-anchor="start" x="281.1312" y="-666.9" font-family="Times,serif" font-size="9.00" fill="#000000">username: String</text>
<polygon fill="none" stroke="#000000" points="276.1312,-640 276.1312,-660 373.1312,-660 373.1312,-640 276.1312,-640"/>
<text text-anchor="start" x="281.1312" y="-646.9" font-family="Times,serif" font-size="9.00" fill="#000000">email: String</text>
<polygon fill="none" stroke="#000000" points="276.1312,-620 276.1312,-640 373.1312,-640 373.1312,-620 276.1312,-620"/>
<text text-anchor="start" x="281.1312" y="-626.9" font-family="Times,serif" font-size="9.00" fill="#000000">password: String</text>
<polygon fill="none" stroke="#000000" points="276.1312,-600 276.1312,-620 373.1312,-620 373.1312,-600 276.1312,-600"/>
<text text-anchor="start" x="281.1312" y="-606.9" font-family="Times,serif" font-size="9.00" fill="#000000">address: String</text>
<polygon fill="none" stroke="#000000" points="276.1312,-580 276.1312,-600 373.1312,-600 373.1312,-580 276.1312,-580"/>
<text text-anchor="start" x="281.1312" y="-586.9" font-family="Times,serif" font-size="9.00" fill="#000000">dateOfBirth: Date</text>
<polygon fill="none" stroke="#000000" points="276.1312,-560 276.1312,-580 373.1312,-580 373.1312,-560 276.1312,-560"/>
<text text-anchor="start" x="281.1312" y="-566.9" font-family="Times,serif" font-size="9.00" fill="#000000">gender: String</text>
<polygon fill="none" stroke="#000000" points="276.1312,-540 276.1312,-560 373.1312,-560 373.1312,-540 276.1312,-540"/>
<text text-anchor="start" x="281.1312" y="-546.9" font-family="Times,serif" font-size="9.00" fill="#000000">contactNumber: String</text>
<polygon fill="none" stroke="#000000" points="276.1312,-520 276.1312,-540 373.1312,-540 373.1312,-520 276.1312,-520"/>
<text text-anchor="start" x="281.1312" y="-526.9" font-family="Times,serif" font-size="9.00" fill="#000000">totalOrders: Number</text>
<polygon fill="none" stroke="#000000" points="276.1312,-500 276.1312,-520 373.1312,-520 373.1312,-500 276.1312,-500"/>
<text text-anchor="start" x="281.0154" y="-506.9" font-family="Times,serif" font-size="9.00" fill="#000000">verificationCode: String</text>
<polygon fill="none" stroke="#000000" points="276.1312,-480 276.1312,-500 373.1312,-500 373.1312,-480 276.1312,-480"/>
<text text-anchor="start" x="281.1312" y="-486.9" font-family="Times,serif" font-size="9.00" fill="#000000">otpCreatedAt: Date</text>
<polygon fill="none" stroke="#000000" points="276.1312,-460 276.1312,-480 373.1312,-480 373.1312,-460 276.1312,-460"/>
<text text-anchor="start" x="281.1312" y="-466.9" font-family="Times,serif" font-size="9.00" fill="#000000">createdAt: Date</text>
<polygon fill="none" stroke="#000000" points="276.1312,-440 276.1312,-460 373.1312,-460 373.1312,-440 276.1312,-440"/>
<text text-anchor="start" x="281.1312" y="-446.9" font-family="Times,serif" font-size="9.00" fill="#000000">_id: ObjectId</text>
<polygon fill="none" stroke="#000000" points="276.1312,-420 276.1312,-440 373.1312,-440 373.1312,-420 276.1312,-420"/>
<text text-anchor="start" x="281.1312" y="-426.9" font-family="Times,serif" font-size="9.00" fill="#000000">__v: Number</text>
</g>
<!-- users&#45;&gt;orders -->
<g id="edge1" class="edge">
<title>users:11&#45;&gt;orders:0</title>
<path fill="none" stroke="#000000" stroke-dasharray="5,2" d="M373.1312,-450C455.7558,-450 476.412,-450 559.0366,-450"/>
<text text-anchor="middle" x="471.3339" y="-454.2" font-family="Times,serif" font-size="14.00" fill="#000000">users&#45;orders</text>
<text text-anchor="middle" x="553.9833" y="-437.4" font-family="Times,serif" font-size="14.00" fill="#000000">N</text>
<text text-anchor="middle" x="376.6312" y="-437.4" font-family="Times,serif" font-size="14.00" fill="#000000">1</text>
</g>
<!-- users&#45;&gt;vouchers -->
<g id="edge3" class="edge">
<title>users:11&#45;&gt;vouchers:0</title>
<path fill="none" stroke="#000000" stroke-dasharray="5,2" d="M373.1312,-450C460.0006,-450 479.1672,-110 566.0366,-110"/>
<text text-anchor="middle" x="471.3339" y="-411.2" font-family="Times,serif" font-size="14.00" fill="#000000">users&#45;vouchers</text>
<text text-anchor="middle" x="560.9833" y="-97.4" font-family="Times,serif" font-size="14.00" fill="#000000">N</text>
<text text-anchor="middle" x="376.6312" y="-454.2" font-family="Times,serif" font-size="14.00" fill="#000000">1</text>
</g>
</g>
</svg>
